<svg xmlns="http://www.w3.org/2000/svg" width="1000" height="620" viewBox="0 0 1000 620">
<rect width="100%" height="100%" fill="white"/>
<style>text{font-family:Arial,"Microsoft YaHei",sans-serif;fill:#1f2937}.grid{stroke:#d1d5db;stroke-width:1}.axis{stroke:#111827;stroke-width:1.5}.curve{fill:none;stroke-width:2}</style>
<text x="500" y="30" font-size="20" text-anchor="middle">ActionPiece validation NDCG@10 (five seeds)</text>
<line class="grid" x1="90" y1="540.00" x2="965" y2="540.00"/>
<text x="78" y="545.00" font-size="12" text-anchor="end">0.000</text>
<line class="grid" x1="90" y1="443.00" x2="965" y2="443.00"/>
<text x="78" y="448.00" font-size="12" text-anchor="end">0.007</text>
<line class="grid" x1="90" y1="346.00" x2="965" y2="346.00"/>
<text x="78" y="351.00" font-size="12" text-anchor="end">0.014</text>
<line class="grid" x1="90" y1="249.00" x2="965" y2="249.00"/>
<text x="78" y="254.00" font-size="12" text-anchor="end">0.021</text>
<line class="grid" x1="90" y1="152.00" x2="965" y2="152.00"/>
<text x="78" y="157.00" font-size="12" text-anchor="end">0.028</text>
<line class="grid" x1="90" y1="55.00" x2="965" y2="55.00"/>
<text x="78" y="60.00" font-size="12" text-anchor="end">0.035</text>
<line class="grid" x1="90.00" y1="55" x2="90.00" y2="540"/>
<text x="90.00" y="564" font-size="12" text-anchor="middle">1</text>
<line class="grid" x1="305.45" y1="55" x2="305.45" y2="540"/>
<text x="305.45" y="564" font-size="12" text-anchor="middle">50</text>
<line class="grid" x1="525.30" y1="55" x2="525.30" y2="540"/>
<text x="525.30" y="564" font-size="12" text-anchor="middle">100</text>
<line class="grid" x1="745.15" y1="55" x2="745.15" y2="540"/>
<text x="745.15" y="564" font-size="12" text-anchor="middle">150</text>
<line class="grid" x1="965.00" y1="55" x2="965.00" y2="540"/>
<text x="965.00" y="564" font-size="12" text-anchor="middle">200</text>
<line class="axis" x1="90" y1="540" x2="965" y2="540"/>
<line class="axis" x1="90" y1="55" x2="90" y2="540"/>
<text x="527.50" y="595" font-size="14" text-anchor="middle">Epoch</text>
<text x="22" y="297.50" font-size="14" text-anchor="middle" transform="rotate(-90 22 297.50)">Validation NDCG@10</text>
<polyline class="curve" stroke="#2563eb" points="90.00,504.20 94.40,461.49 98.79,484.36 103.19,455.31 107.59,443.43 111.98,443.77 116.38,442.06 120.78,441.67 125.18,445.71 129.57,439.45 133.97,450.67 138.37,445.63 142.76,443.98 147.16,447.49 151.56,445.73 155.95,446.60 160.35,445.03 164.75,450.35 169.15,450.43 173.54,447.51 177.94,448.67 182.34,442.87 186.73,444.97 191.13,439.89 195.53,446.51 199.92,447.71 204.32,450.73 208.72,442.93 213.12,442.14 217.51,449.39 221.91,443.77 226.31,450.35 230.70,443.52 235.10,447.45 239.50,456.85 243.89,453.19 248.29,442.66 252.69,445.57 257.09,448.89 261.48,446.16 265.88,445.74 270.28,440.49 274.67,452.44 279.07,448.02 283.47,447.15 287.86,451.33 292.26,441.14 296.66,450.05 301.06,439.32 305.45,446.08 309.85,447.11 314.25,448.24 318.64,441.83 323.04,445.50 327.44,440.40 331.83,453.62 336.23,447.04 340.63,448.30 345.03,441.56 349.42,452.93 353.82,446.19 358.22,448.60 362.61,453.14 367.01,446.35 371.41,446.70 375.80,442.62 380.20,443.69 384.60,454.32 388.99,478.36 393.39,445.81 397.79,430.81 402.19,393.14 406.58,397.25 410.98,389.39 415.38,384.78 419.77,378.99 424.17,359.47 428.57,374.96 432.96,356.59 437.36,345.93 441.76,359.07 446.16,326.72 450.55,333.65 454.95,331.97 459.35,298.14 463.74,313.34 468.14,307.54 472.54,318.19 476.93,305.59 481.33,289.81 485.73,287.17 490.13,291.05 494.52,289.65 498.92,303.03 503.32,287.36 507.71,282.36 512.11,267.41 516.51,279.40 520.90,258.71 525.30,268.39 529.70,266.56 534.10,268.78 538.49,261.96 542.89,264.86 547.29,262.38 551.68,259.15 556.08,245.09 560.48,267.36 564.87,255.61 569.27,248.28 573.67,249.05 578.07,240.07 582.46,236.47 586.86,231.43 591.26,235.04 595.65,225.71 600.05,248.09 604.45,240.99 608.84,222.77 613.24,225.41 617.64,235.69 622.04,232.58 626.43,220.99 630.83,217.08 635.23,224.99 639.62,219.29 644.02,223.48 648.42,216.14 652.81,207.46 657.21,213.74 661.61,211.82 666.01,204.25 670.40,201.09 674.80,197.56 679.20,199.34 683.59,196.43 687.99,196.29 692.39,181.66 696.78,186.75 701.18,181.55 705.58,190.21 709.97,179.06 714.37,179.66 718.77,185.06 723.17,172.40 727.56,164.49 731.96,166.77 736.36,163.09 740.75,161.73 745.15,153.06 749.55,160.79 753.94,154.75 758.34,160.02 762.74,148.82 767.14,155.03 771.53,149.68 775.93,160.68 780.33,149.53 784.72,141.51 789.12,138.68 793.52,137.80 797.91,145.49 802.31,142.39 806.71,139.81 811.11,133.34 815.50,127.31 819.90,128.48 824.30,136.85 828.69,128.56 833.09,126.23 837.49,135.77 841.88,123.81 846.28,121.92 850.68,124.45 855.08,119.50 859.47,119.64 863.87,121.73 868.27,115.96 872.66,121.00 877.06,118.77 881.46,121.51 885.85,116.73 890.25,110.46 894.65,121.12 899.05,113.40 903.44,107.37 907.84,113.97 912.24,112.45 916.63,112.62 921.03,115.92 925.43,110.89 929.82,113.10 934.22,115.43 938.62,115.57 943.02,109.61 947.41,107.02 951.81,109.81 956.21,112.87 960.60,115.05 965.00,112.07"/>
<line x1="90" y1="568" x2="116" y2="568" stroke="#2563eb" stroke-width="3"/>
<text x="124" y="573" font-size="13">seed 2024</text>
<polyline class="curve" stroke="#dc2626" points="90.00,494.24 94.40,450.44 98.79,467.94 103.19,452.43 107.59,449.05 111.98,447.97 116.38,449.97 120.78,439.16 125.18,441.92 129.57,444.19 133.97,453.51 138.37,450.19 142.76,450.21 147.16,445.73 151.56,446.91 155.95,448.42 160.35,446.94 164.75,444.30 169.15,449.61 173.54,450.92 177.94,449.85 182.34,448.69 186.73,448.26 191.13,446.84 195.53,445.26 199.92,446.59 204.32,448.36 208.72,450.25 213.12,442.85 217.51,452.01 221.91,448.83 226.31,448.12 230.70,445.73 235.10,447.85 239.50,446.25 243.89,448.10 248.29,448.20 252.69,450.22 257.09,448.97 261.48,451.19 265.88,449.00 270.28,446.56 274.67,447.87 279.07,447.61 283.47,447.64 287.86,443.69 292.26,438.99 296.66,454.79 301.06,441.93 305.45,443.59 309.85,459.41 314.25,448.38 318.64,448.34 323.04,445.78 327.44,449.33 331.83,438.91 336.23,447.48 340.63,445.21 345.03,447.02 349.42,441.39 353.82,452.81 358.22,434.31 362.61,399.72 367.01,390.57 371.41,392.51 375.80,392.76 380.20,358.92 384.60,355.56 388.99,358.28 393.39,320.49 397.79,325.20 402.19,332.90 406.58,326.75 410.98,312.18 415.38,296.21 419.77,299.21 424.17,293.24 428.57,288.42 432.96,278.66 437.36,286.82 441.76,287.12 446.16,275.11 450.55,286.10 454.95,277.36 459.35,273.66 463.74,275.36 468.14,261.93 472.54,270.44 476.93,265.37 481.33,270.91 485.73,271.58 490.13,247.76 494.52,267.58 498.92,251.40 503.32,265.98 507.71,249.52 512.11,262.50 516.51,250.12 520.90,242.83 525.30,261.73 529.70,249.39 534.10,242.66 538.49,241.00 542.89,235.97 547.29,254.78 551.68,232.23 556.08,220.95 560.48,227.30 564.87,240.16 569.27,226.48 573.67,236.23 578.07,237.72 582.46,221.19 586.86,224.05 591.26,225.58 595.65,225.07 600.05,206.24 604.45,217.85 608.84,226.18 613.24,220.90 617.64,208.79 622.04,209.99 626.43,223.06 630.83,210.86 635.23,200.59 639.62,204.63 644.02,213.47 648.42,197.68 652.81,193.22 657.21,180.92 661.61,191.74 666.01,185.81 670.40,184.20 674.80,191.44 679.20,179.67 683.59,190.00 687.99,185.12 692.39,179.83 696.78,189.24 701.18,168.54 705.58,187.96 709.97,162.15 714.37,164.26 718.77,169.37 723.17,161.33 727.56,162.36 731.96,161.94 736.36,164.56 740.75,160.42 745.15,142.68 749.55,158.30 753.94,140.96 758.34,154.22 762.74,143.84 767.14,143.82 771.53,145.46 775.93,142.93 780.33,127.92 784.72,137.28 789.12,134.22 793.52,131.06 797.91,129.07 802.31,129.04 806.71,124.63 811.11,115.04 815.50,127.61 819.90,122.42 824.30,119.52 828.69,115.11 833.09,104.70 837.49,117.18 841.88,114.95 846.28,109.32 850.68,115.24 855.08,103.27 859.47,114.34 863.87,111.24 868.27,109.95 872.66,108.85 877.06,109.51 881.46,110.47 885.85,104.48 890.25,103.98 894.65,107.49 899.05,109.41 903.44,106.12 907.84,104.17 912.24,104.66 916.63,104.43 921.03,108.81 925.43,103.96 929.82,102.07 934.22,107.77 938.62,103.01 943.02,104.42 947.41,105.31 951.81,101.46 956.21,106.16 960.60,108.75 965.00,104.83"/>
<line x1="240" y1="568" x2="266" y2="568" stroke="#dc2626" stroke-width="3"/>
<text x="274" y="573" font-size="13">seed 2025</text>
<polyline class="curve" stroke="#16a34a" points="90.00,492.94 94.40,460.80 98.79,455.40 103.19,445.72 107.59,445.99 111.98,446.51 116.38,448.33 120.78,447.45 125.18,449.51 129.57,447.83 133.97,445.96 138.37,442.76 142.76,445.06 147.16,449.94 151.56,450.84 155.95,440.23 160.35,448.55 164.75,446.07 169.15,447.55 173.54,436.77 177.94,442.93 182.34,446.46 186.73,446.04 191.13,443.37 195.53,444.95 199.92,446.69 204.32,446.78 208.72,446.98 213.12,448.21 217.51,447.06 221.91,451.44 226.31,448.45 230.70,446.94 235.10,447.49 239.50,447.60 243.89,447.07 248.29,445.64 252.69,445.12 257.09,445.54 261.48,447.72 265.88,448.12 270.28,446.74 274.67,444.25 279.07,409.12 283.47,400.79 287.86,390.41 292.26,383.87 296.66,391.33 301.06,366.31 305.45,378.35 309.85,380.71 314.25,366.90 318.64,353.31 323.04,363.60 327.44,338.22 331.83,363.45 336.23,336.93 340.63,344.66 345.03,320.47 349.42,337.80 353.82,309.06 358.22,323.03 362.61,332.61 367.01,318.99 371.41,307.62 375.80,314.65 380.20,304.15 384.60,325.47 388.99,301.18 393.39,328.46 397.79,323.76 402.19,291.07 406.58,298.07 410.98,297.80 415.38,273.53 419.77,282.59 424.17,276.35 428.57,295.79 432.96,302.89 437.36,285.70 441.76,272.33 446.16,290.98 450.55,286.08 454.95,279.81 459.35,262.86 463.74,267.84 468.14,276.28 472.54,266.67 476.93,267.54 481.33,259.66 485.73,257.02 490.13,271.48 494.52,260.37 498.92,256.26 503.32,244.69 507.71,234.40 512.11,244.34 516.51,241.25 520.90,242.85 525.30,248.31 529.70,251.68 534.10,238.24 538.49,244.08 542.89,243.73 547.29,227.77 551.68,247.39 556.08,234.98 560.48,224.07 564.87,222.38 569.27,228.51 573.67,235.97 578.07,212.98 582.46,217.16 586.86,239.78 591.26,218.37 595.65,215.26 600.05,215.24 604.45,219.64 608.84,226.50 613.24,205.70 617.64,200.06 622.04,196.66 626.43,189.94 630.83,190.91 635.23,201.94 639.62,193.36 644.02,184.16 648.42,166.82 652.81,185.39 657.21,173.37 661.61,189.05 666.01,189.51 670.40,181.55 674.80,173.38 679.20,172.17 683.59,181.19 687.99,155.65 692.39,158.26 696.78,157.34 701.18,162.49 705.58,163.61 709.97,159.03 714.37,157.34 718.77,155.78 723.17,144.38 727.56,155.06 731.96,139.14 736.36,143.82 740.75,136.77 745.15,142.96 749.55,126.38 753.94,122.96 758.34,136.93 762.74,134.52 767.14,116.78 771.53,133.08 775.93,137.74 780.33,121.63 784.72,119.07 789.12,120.00 793.52,116.46 797.91,129.02 802.31,115.76 806.71,127.36 811.11,114.54 815.50,108.46 819.90,108.82 824.30,112.54 828.69,114.24 833.09,104.55 837.49,107.52 841.88,103.12 846.28,103.15 850.68,108.01 855.08,103.94 859.47,100.06 863.87,99.40 868.27,102.76 872.66,105.28 877.06,103.99 881.46,103.02 885.85,101.05 890.25,100.05 894.65,99.27 899.05,100.25 903.44,98.49 907.84,101.57 912.24,95.40 916.63,91.94 921.03,93.36 925.43,94.89 929.82,94.75 934.22,94.29 938.62,93.63 943.02,90.93 947.41,95.92 951.81,96.33 956.21,97.96 960.60,92.68 965.00,94.54"/>
<line x1="390" y1="568" x2="416" y2="568" stroke="#16a34a" stroke-width="3"/>
<text x="424" y="573" font-size="13">seed 2026</text>
<polyline class="curve" stroke="#9333ea" points="90.00,485.38 94.40,460.68 98.79,468.51 103.19,448.17 107.59,448.56 111.98,446.91 116.38,441.75 120.78,448.68 125.18,448.23 129.57,447.94 133.97,450.13 138.37,444.39 142.76,444.64 147.16,436.80 151.56,447.53 155.95,442.58 160.35,445.96 164.75,453.52 169.15,445.92 173.54,448.35 177.94,449.56 182.34,448.89 186.73,447.26 191.13,438.77 195.53,448.38 199.92,441.03 204.32,438.90 208.72,457.44 213.12,450.44 217.51,445.25 221.91,446.50 226.31,454.47 230.70,449.03 235.10,451.47 239.50,439.46 243.89,447.05 248.29,449.08 252.69,452.22 257.09,450.80 261.48,447.95 265.88,447.58 270.28,448.11 274.67,442.93 279.07,447.16 283.47,446.47 287.86,421.40 292.26,408.96 296.66,392.40 301.06,386.03 305.45,373.16 309.85,366.47 314.25,381.68 318.64,361.21 323.04,359.69 327.44,357.04 331.83,361.25 336.23,349.40 340.63,353.16 345.03,354.29 349.42,348.60 353.82,342.44 358.22,353.08 362.61,332.13 367.01,320.79 371.41,335.44 375.80,321.28 380.20,320.88 384.60,316.96 388.99,320.60 393.39,311.58 397.79,314.68 402.19,308.91 406.58,309.27 410.98,300.87 415.38,294.49 419.77,309.63 424.17,306.64 428.57,305.23 432.96,292.93 437.36,304.52 441.76,293.80 446.16,288.48 450.55,266.22 454.95,274.93 459.35,283.14 463.74,284.93 468.14,265.05 472.54,273.73 476.93,263.64 481.33,272.27 485.73,268.56 490.13,260.10 494.52,280.82 498.92,250.73 503.32,271.94 507.71,264.84 512.11,261.59 516.51,253.47 520.90,252.15 525.30,257.07 529.70,266.75 534.10,262.81 538.49,250.30 542.89,259.52 547.29,246.01 551.68,253.32 556.08,250.81 560.48,236.40 564.87,236.87 569.27,238.59 573.67,240.82 578.07,253.67 582.46,232.42 586.86,242.48 591.26,217.80 595.65,222.68 600.05,222.96 604.45,225.02 608.84,214.99 613.24,212.88 617.64,218.18 622.04,209.54 626.43,215.95 630.83,222.96 635.23,199.53 639.62,215.41 644.02,205.59 648.42,200.41 652.81,212.82 657.21,199.74 661.61,203.64 666.01,189.94 670.40,212.08 674.80,202.33 679.20,195.50 683.59,191.34 687.99,195.79 692.39,189.32 696.78,190.54 701.18,172.59 705.58,184.38 709.97,163.38 714.37,182.08 718.77,171.93 723.17,179.97 727.56,172.38 731.96,165.59 736.36,165.88 740.75,155.84 745.15,162.83 749.55,164.59 753.94,156.86 758.34,153.06 762.74,152.11 767.14,152.33 771.53,153.94 775.93,146.51 780.33,141.38 784.72,161.50 789.12,151.45 793.52,147.22 797.91,145.21 802.31,133.34 806.71,145.07 811.11,142.41 815.50,139.17 819.90,133.98 824.30,128.78 828.69,140.86 833.09,131.31 837.49,121.02 841.88,125.18 846.28,128.62 850.68,129.67 855.08,132.21 859.47,119.05 863.87,126.06 868.27,133.64 872.66,125.71 877.06,123.60 881.46,120.94 885.85,118.43 890.25,116.89 894.65,125.68 899.05,123.83 903.44,122.90 907.84,116.31 912.24,121.85 916.63,120.25 921.03,121.24 925.43,117.72 929.82,114.64 934.22,114.95 938.62,115.10 943.02,117.45 947.41,118.19 951.81,115.05 956.21,115.66 960.60,114.51 965.00,123.28"/>
<line x1="540" y1="568" x2="566" y2="568" stroke="#9333ea" stroke-width="3"/>
<text x="574" y="573" font-size="13">seed 2027</text>
<polyline class="curve" stroke="#ea580c" points="90.00,492.59 94.40,456.32 98.79,456.81 103.19,448.91 107.59,444.93 111.98,446.22 116.38,448.20 120.78,448.53 125.18,444.45 129.57,447.57 133.97,443.39 138.37,447.22 142.76,447.52 147.16,447.56 151.56,447.44 155.95,451.78 160.35,448.51 164.75,449.72 169.15,450.74 173.54,447.48 177.94,454.50 182.34,447.81 186.73,449.90 191.13,448.48 195.53,445.32 199.92,447.36 204.32,450.40 208.72,447.96 213.12,448.04 217.51,446.25 221.91,443.24 226.31,443.92 230.70,451.06 235.10,449.23 239.50,446.34 243.89,446.47 248.29,442.61 252.69,446.81 257.09,445.97 261.48,444.11 265.88,448.19 270.28,445.99 274.67,443.80 279.07,450.12 283.47,449.84 287.86,447.74 292.26,445.57 296.66,448.41 301.06,448.03 305.45,448.75 309.85,445.92 314.25,442.29 318.64,417.35 323.04,405.38 327.44,395.71 331.83,395.36 336.23,394.49 340.63,378.16 345.03,402.64 349.42,368.09 353.82,371.31 358.22,360.74 362.61,359.81 367.01,349.45 371.41,337.76 375.80,348.20 380.20,349.39 384.60,329.39 388.99,329.29 393.39,314.82 397.79,302.23 402.19,309.80 406.58,302.49 410.98,285.92 415.38,301.34 419.77,302.75 424.17,276.11 428.57,275.88 432.96,302.70 437.36,288.29 441.76,265.53 446.16,279.25 450.55,271.09 454.95,272.86 459.35,256.36 463.74,284.33 468.14,267.55 472.54,276.88 476.93,254.60 481.33,266.56 485.73,262.10 490.13,254.03 494.52,229.53 498.92,253.61 503.32,256.50 507.71,270.06 512.11,252.39 516.51,247.35 520.90,260.63 525.30,243.48 529.70,243.21 534.10,245.98 538.49,240.15 542.89,223.11 547.29,247.09 551.68,242.04 556.08,238.08 560.48,230.25 564.87,216.10 569.27,228.38 573.67,225.82 578.07,240.08 582.46,228.77 586.86,213.23 591.26,216.85 595.65,215.29 600.05,216.81 604.45,218.08 608.84,202.15 613.24,206.22 617.64,212.57 622.04,198.02 626.43,192.17 630.83,193.18 635.23,193.27 639.62,178.94 644.02,177.31 648.42,193.20 652.81,186.79 657.21,186.19 661.61,165.23 666.01,180.54 670.40,187.50 674.80,179.22 679.20,186.97 683.59,159.94 687.99,160.76 692.39,156.05 696.78,154.50 701.18,162.14 705.58,155.76 709.97,149.64 714.37,156.55 718.77,133.87 723.17,148.84 727.56,151.09 731.96,143.24 736.36,140.44 740.75,137.59 745.15,136.23 749.55,139.59 753.94,127.21 758.34,120.86 762.74,137.74 767.14,129.37 771.53,131.71 775.93,122.54 780.33,121.44 784.72,128.50 789.12,123.31 793.52,116.95 797.91,117.40 802.31,111.59 806.71,122.07 811.11,115.55 815.50,114.33 819.90,110.80 824.30,112.77 828.69,109.05 833.09,107.32 837.49,101.76 841.88,114.90 846.28,108.04 850.68,101.39 855.08,106.41 859.47,101.14 863.87,99.13 868.27,99.58 872.66,100.14 877.06,99.52 881.46,100.54 885.85,95.95 890.25,99.50 894.65,95.11 899.05,101.86 903.44,93.41 907.84,93.56 912.24,94.76 916.63,91.85 921.03,99.07 925.43,97.27 929.82,96.27 934.22,97.51 938.62,100.49 943.02,92.20 947.41,99.40 951.81,94.09 956.21,95.27 960.60,95.18 965.00,97.61"/>
<line x1="690" y1="568" x2="716" y2="568" stroke="#ea580c" stroke-width="3"/>
<text x="724" y="573" font-size="13">seed 2028</text>
</svg>
